<svg version="1.1" id="Layer_1" xmlns="http://www.w3.org/2000/svg" xmlns:xlink="http://www.w3.org/1999/xlink" x="0px" y="0px"
	 width="100%" viewBox="0 0 992 976" enable-background="new 0 0 992 976" xml:space="preserve">
<path fill="#000000" opacity="1.000000" stroke="none" 
	d="
M1.000000,424.437500 
	C3.785132,416.115173 9.434984,413.630371 17.634132,413.487793 
	C60.616589,412.740295 103.602409,412.945160 146.585144,412.583923 
	C182.059647,412.285797 217.533234,411.877869 253.007431,411.540009 
	C276.163208,411.319458 299.319092,411.097168 322.475403,410.954865 
	C333.979492,410.884186 338.621185,415.542328 338.263367,427.067780 
	C337.238098,460.092987 322.304657,486.492615 298.291443,508.020844 
	C268.910522,534.361206 233.862823,548.069519 194.901947,552.371216 
	C191.928070,552.699585 188.962814,553.174438 185.980225,553.336853 
	C182.706284,553.515137 182.101578,555.158203 182.947113,558.578796 
	C189.050919,557.137878 194.982941,555.852234 200.854614,554.333252 
	C251.616943,541.201477 302.363129,528.007263 353.125183,514.874390 
	C382.931122,507.163177 412.744263,499.478546 442.591492,491.929626 
	C446.109436,491.039856 447.727386,489.725616 448.279236,485.800964 
	C452.477600,455.943207 475.447540,437.101074 504.723663,440.005646 
	C519.444458,441.466187 531.767090,448.458862 540.196167,460.876343 
	C543.043213,465.070496 545.576538,465.332062 550.011597,464.172516 
	C590.913330,453.478790 631.876221,443.018768 672.824646,432.503937 
	C718.288391,420.829620 763.760193,409.187256 809.205811,397.442932 
	C811.221802,396.921997 813.959473,397.146210 815.170532,393.734528 
	C808.327576,392.867950 801.785339,392.249847 795.316406,391.186005 
	C754.464355,384.467590 717.892090,369.074615 689.411865,337.871857 
	C671.168335,317.884308 660.612061,294.459320 659.382629,267.177368 
	C658.964722,257.904083 664.755371,252.070908 674.599182,252.000214 
	C695.427063,251.850632 716.255920,251.834793 737.084412,251.789612 
	C765.078064,251.728882 793.079285,252.090027 821.063843,251.559967 
	C874.376831,250.550140 927.691833,251.014603 981.004761,250.663010 
	C985.164490,250.635590 988.920715,251.328339 992.656860,253.872070 
	C993.000000,266.020905 993.000000,278.041779 993.000000,290.531342 
	C975.841309,342.832611 936.503418,369.749847 887.013245,385.126495 
	C873.622559,389.287018 859.838074,391.813293 845.859192,392.927094 
	C841.803833,393.250183 840.660156,395.004669 840.951111,398.605835 
	C841.058044,399.929260 840.950378,401.270447 840.933716,402.603424 
	C840.816895,411.953552 837.892334,415.982666 828.832947,418.343048 
	C794.037354,427.408722 759.210999,436.356079 724.398682,445.357758 
	C667.823303,459.986847 611.256653,474.649902 554.658630,489.191040 
	C551.356628,490.039368 550.016602,491.609619 549.697510,494.922943 
	C549.217896,499.902466 548.209717,504.890442 546.003906,509.383789 
	C544.285278,512.884705 544.915405,515.412170 546.978516,518.504211 
	C576.199585,562.297302 605.307190,606.166077 634.429260,650.025146 
	C641.064148,660.017517 647.600098,670.075806 654.280151,680.037720 
	C657.392517,684.679199 658.533203,689.418091 655.774170,694.573608 
	C653.018616,699.722534 648.534424,701.352844 642.873474,701.348999 
	C547.888672,701.285400 452.903748,701.288025 357.918884,701.353699 
	C352.329193,701.357544 347.708344,700.040527 344.878723,694.850159 
	C341.986725,689.545471 343.058044,684.653564 346.271057,679.839783 
	C370.315796,643.815430 394.312531,607.759094 418.328430,571.715515 
	C429.596680,554.803894 440.885376,537.905945 452.127136,520.976746 
	C453.097412,519.515686 454.458893,518.124817 453.996918,515.527039 
	C445.554352,517.538879 437.164948,519.398865 428.848480,521.541809 
	C361.791962,538.820557 294.748627,556.150146 227.702698,573.469849 
	C210.298218,577.965942 192.903397,582.499512 175.495468,586.982056 
	C164.642624,589.776855 157.413086,584.363770 157.099609,573.183594 
	C156.964203,568.354126 156.883972,563.515076 157.033707,558.688232 
	C157.150497,554.923706 155.776764,553.540405 151.849121,553.261719 
	C114.232689,550.592590 79.775261,538.911865 49.714252,515.814392 
	C27.150553,498.477539 11.006771,476.464020 4.041273,448.453125 
	C2.683533,442.993103 2.160230,437.325562 1.126021,431.376892 
	C1.000000,428.958344 1.000000,426.916656 1.000000,424.437500 
M437.078339,589.543762 
	C418.225861,617.895630 399.373413,646.247498 379.976379,675.418274 
	C460.692139,675.418274 540.164856,675.418274 619.581787,675.418274 
	C619.995605,673.502319 618.817993,672.587891 618.120728,671.535828 
	C588.584351,626.972717 558.997864,582.442810 529.515381,537.844116 
	C527.353333,534.573547 525.486023,533.946777 521.809021,535.739746 
	C507.919647,542.512085 493.537384,543.448853 479.336029,537.020569 
	C474.368835,534.772156 472.285706,536.418579 469.788818,540.230957 
	C459.113525,556.530396 448.252930,572.708496 437.078339,589.543762 
M839.649475,367.906647 
	C870.714294,366.073212 899.663818,357.474213 925.575745,340.018951 
	C946.334229,326.035339 961.911926,307.829315 968.771912,283.154205 
	C970.553223,276.746643 970.152039,276.223236 963.614136,276.262054 
	C920.788940,276.516449 877.963928,276.845551 835.138428,277.023315 
	C787.473145,277.221191 739.807312,277.279968 692.141724,277.410645 
	C686.107727,277.427185 685.846436,277.859894 687.475403,283.798523 
	C691.951660,300.117188 700.280945,314.259705 712.597412,325.732300 
	C748.178162,358.875153 791.213562,370.191101 839.649475,367.906647 
M286.791595,484.294037 
	C298.269684,472.467041 306.451233,458.738800 310.809784,442.785767 
	C312.348328,437.154419 311.608673,436.162415 305.962891,436.384186 
	C299.986298,436.618988 294.007599,436.865051 288.027710,436.940247 
	C250.877182,437.407623 213.724396,437.017181 176.569855,437.768860 
	C128.931931,438.732635 81.268661,437.698608 33.628979,439.043427 
	C32.035027,439.088409 30.258884,438.585297 28.715858,440.488434 
	C29.279503,446.434357 31.565178,452.133911 34.117340,457.708405 
	C45.332085,482.203674 64.581947,498.608154 88.123466,510.387512 
	C125.577003,529.127930 165.141388,532.786804 205.874298,525.310120 
	C236.523651,519.684387 263.841766,506.930573 286.791595,484.294037 
M522.851990,499.051270 
	C526.418945,487.107025 522.399292,475.139557 512.827515,469.206268 
	C502.619507,462.878448 490.251862,463.920288 481.959625,471.806610 
	C473.171844,480.164215 471.246490,492.728485 477.313629,503.325592 
	C482.139801,511.755188 489.895996,515.798279 499.266998,515.637817 
	C510.158051,515.451416 518.185486,510.064728 522.851990,499.051270 
z"/>
</svg>